<svg viewBox="0 0 960 540" xmlns="http://www.w3.org/2000/svg" preserveAspectRatio="xMaxYMin slice">
  <path
    d="M498 540L521.7 525C545.3 510 592.7 480 599 450C605.3 420 570.7 390 575.5 360C580.3 330 624.7 300 658 270C691.3 240 713.7 210 703 180C692.3 150 648.7 120 650 90C651.3 60 697.7 30 720.8 15L744 0L960 0L960 540Z"
    fill="#5c5cb8" />
  <path
    d="M606 540L610.7 525C615.3 510 624.7 480 656.7 450C688.7 420 743.3 390 734.2 360C725 330 652 300 631.3 270C610.7 240 642.3 210 659.3 180C676.3 150 678.7 120 667.8 90C657 60 633 30 621 15L609 0L960 0L960 540Z"
    fill="#000032" />
</svg>
